<?xml version="1.0" encoding="utf-8"?>
<!-- Generator: Adobe Illustrator 23.0.3, SVG Export Plug-In . SVG Version: 6.00 Build 0)  -->
<svg version="1.1" id="Layer_1" xmlns="http://www.w3.org/2000/svg" xmlns:xlink="http://www.w3.org/1999/xlink" x="0px" y="0px"
	 viewBox="0 0 1000 1000" style="enable-background:new 0 0 1000 1000;" xml:space="preserve">
<style type="text/css">
	.st0{fill:#FFF5E8;stroke:#59221A;stroke-width:17;stroke-miterlimit:10;}
	.st1{fill:none;stroke:#000000;stroke-miterlimit:10;}
	.st2{fill:#F0C3AD;}
	.st3{fill:#F0762D;}
	.st4{fill:none;stroke:#59221A;stroke-width:17;stroke-miterlimit:10;}
	.st5{fill:#FFFFFF;stroke:#59221A;stroke-width:17;stroke-miterlimit:10;}
	.st6{fill:#FFFFFF;}
	.st7{fill:#F0762E;}
	.st8{fill:#59221A;}
</style>
<path class="st0" d="M959.2,971.2H40.8c-6.6,0-12-5.4-12-12V40.8c0-6.6,5.4-12,12-12h918.4c6.6,0,12,5.4,12,12v918.4
	C971.2,965.8,965.8,971.2,959.2,971.2z"/>
<line class="st1" x1="365" y1="406.7" x2="362.6" y2="406.7"/>
<path class="st2" d="M506,651.5c0,27.5-18.8,2.8-46.3,2.8l-78.6,4.6c-27.5,0-25-35.6-25-63.1l-52-319.6c0-27.5-16.3-50,11.2-50
	h144.5"/>
<path class="st3" d="M633.1,406.7l-18.5,179.2c-1,9.5-9,16.7-18.6,16.7H410.5c-9.3,0-17.1-6.8-18.5-15.9l-27-180H633.1z"/>
<path class="st4" d="M670.5,217.7h-348c-15.3,0-27.1,13.6-24.8,28.8l58.6,391c1.8,12.3,12.4,21.3,24.8,21.3h249
	c12.8,0,23.6-9.7,24.9-22.5l40.4-391.1C696.9,230.5,685.3,217.7,670.5,217.7z M646.8,273.9l-13.7,132.8l-18.5,179.2
	c-1,9.5-9,16.7-18.6,16.7H410.5c-9.3,0-17.1-6.8-18.5-15.9l-27-180l-19.9-132.8 M539.4,343.4h24.2c12.3,0,22.3-10,22.3-22.3v-24.2
	c0-12.3-10-22.3-22.3-22.3h-24.2c-12.3,0-22.3,10-22.3,22.3v24.2C517.1,333.4,527.1,343.4,539.4,343.4z"/>
<line class="st1" x1="634.4" y1="406.7" x2="633.1" y2="406.7"/>
<path class="st4" d="M541.3,219.1l-25-25c-21.3-21.3-6.2-57.8,24-57.8h97.8"/>
<path class="st5" d="M535.7,374.5v9.8c0,5-5.3,9.1-11.7,9.1h-12.7c-6.5,0-11.7-4.1-11.7-9.1v-9.8c0-5,5.3-9,11.7-9H524
	C530.5,365.5,535.7,369.5,535.7,374.5z"/>
<path class="st6" d="M573.5,555.3v9.8c0,5-5.3,9.1-11.7,9.1h-12.7c-6.5,0-11.7-4.1-11.7-9.1v-9.8c0-5,5.3-9,11.7-9h12.7
	C568.3,546.3,573.5,550.3,573.5,555.3z"/>
<polygon class="st4" points="106,432 169.3,395.5 232.6,358.9 232.6,432 232.6,505.1 169.3,468.6 "/>
<polygon class="st4" points="895.2,432 832,395.5 768.7,358.9 768.7,432 768.7,505.1 832,468.6 "/>
<g>
	<g>
		<path class="st7" d="M292.1,774.5v-53.2h9.9v53.2H292.1z M301.1,759.2v-9.1h7.3c3.3,0,5.8-0.9,7.6-2.7c1.8-1.8,2.7-4.3,2.7-7.5
			c0-3-0.9-5.4-2.7-7c-1.8-1.6-4.3-2.5-7.6-2.5h-7.2v-9.1h7.2c6.7,0,11.8,1.6,15.5,4.7c3.6,3.1,5.5,7.6,5.5,13.3
			c0,6.3-1.8,11.3-5.5,14.8c-3.7,3.5-8.8,5.2-15.5,5.2H301.1z"/>
		<path class="st7" d="M337.4,730.1v-8.9H371v8.9H337.4z M337.4,774.5v-8.9H371v8.9H337.4z M349.2,774.5v-53.2h9.9v53.2H349.2z"/>
		<path class="st7" d="M408.1,774.5l-11.8-23.2l-18.4-30h12.4l12.3,24.6l18,28.6H408.1z M377.9,774.5l17.9-28.6l12.3-24.6h12.4
			l-18.5,30l-11.8,23.2H377.9z"/>
		<path class="st7" d="M427,774.5v-53.2h9.9v53.2H427z M427,730.4v-9.1h36.5v9.1H427z M427,752.4v-9.1h29.8v9.1H427z M427,774.5
			v-9.1h36.5v9.1H427z"/>
		<path class="st7" d="M472,774.5v-53.2h9.9v53.2H472z M472,774.5v-9.1h36.5v9.1H472z"/>
		<path class="st7" d="M562,774.5v-53.2h9.9v53.2H562z M571,759.2v-9.1h7.3c3.3,0,5.8-0.9,7.6-2.7c1.8-1.8,2.7-4.3,2.7-7.5
			c0-3-0.9-5.4-2.7-7c-1.8-1.6-4.3-2.5-7.6-2.5h-7.2v-9.1h7.2c6.7,0,11.8,1.6,15.5,4.7c3.6,3.1,5.5,7.6,5.5,13.3
			c0,6.3-1.8,11.3-5.5,14.8c-3.7,3.5-8.8,5.2-15.5,5.2H571z"/>
		<path class="st7" d="M607.3,730.1v-8.9h33.7v8.9H607.3z M607.3,774.5v-8.9h33.7v8.9H607.3z M619.1,774.5v-53.2h9.9v53.2H619.1z"/>
		<path class="st7" d="M651.5,774.5v-53.2h9.5v53.2H651.5z M671.8,774.5l-9.4-41.6h-4.1v-11.6h8.1l9.4,41.6h2.5v11.6H671.8z
			 M677.1,774.5v-53.2h9.5v53.2H677.1z"/>
		<path class="st7" d="M693.9,730.4v-9.1h40.3v9.1H693.9z M709.1,774.5v-53.2h9.9v53.2H709.1z"/>
		<path class="st7" d="M334.8,844.7v-9.4h38.8v9.4H334.8z"/>
		<path class="st7" d="M426.7,866.6v-10.2c7.8-4.2,13.7-8.5,17.5-13.1c3.9-4.5,5.8-9.2,5.8-14c0-2.4-0.6-4.2-1.8-5.5
			c-1.2-1.2-3-1.8-5.4-1.8c-2.1,0-4.3,0.6-6.7,1.8c-2.3,1.2-4.3,2.7-6,4.7l-5.8-6.7c1.9-2.7,4.5-5,7.9-6.6c3.4-1.7,7-2.5,10.7-2.5
			c5.8,0,10.2,1.3,13.1,4c2.9,2.7,4.3,6.7,4.3,12.1c0,5-1.5,9.8-4.4,14.5c-3,4.6-7.4,9-13.5,13.3v10.2H426.7z M429,866.6v-8.8h33.7
			v8.8H429z"/>
		<path class="st7" d="M489.1,867.4c-12.5,0-18.8-9-18.8-27c0-18.5,6.3-27.7,18.8-27.7s18.8,9.2,18.8,27.7
			C507.9,858.4,501.7,867.4,489.1,867.4z M489.1,857.9c5.7,0,8.5-5.8,8.5-17.5c0-12.2-2.8-18.3-8.5-18.3c-5.8,0-8.7,6.1-8.7,18.3
			C480.4,852.1,483.3,857.9,489.1,857.9z M489.1,847.2c-1.5,0-2.7-0.6-3.6-1.9c-0.9-1.3-1.4-2.9-1.4-5s0.5-3.7,1.4-5
			s2.1-1.9,3.6-1.9s2.7,0.6,3.6,1.9c0.9,1.3,1.4,2.9,1.4,5s-0.5,3.7-1.4,5C491.8,846.6,490.6,847.2,489.1,847.2z"/>
		<path class="st7" d="M516.7,866.6v-10.2c7.8-4.2,13.7-8.5,17.5-13.1c3.9-4.5,5.8-9.2,5.8-14c0-2.4-0.6-4.2-1.8-5.5
			c-1.2-1.2-3-1.8-5.4-1.8c-2.1,0-4.3,0.6-6.7,1.8s-4.3,2.7-6,4.7l-5.8-6.7c1.9-2.7,4.5-5,7.9-6.6c3.4-1.7,7-2.5,10.7-2.5
			c5.8,0,10.2,1.3,13.1,4c2.9,2.7,4.3,6.7,4.3,12.1c0,5-1.5,9.8-4.4,14.5c-3,4.6-7.4,9-13.5,13.3v10.2H516.7z M518.9,866.6v-8.8
			h33.7v8.8H518.9z"/>
		<path class="st7" d="M570.9,844.1l-0.9-8.6c3.5-0.4,6.3-1.1,8.5-1.9c2.2-0.8,3.8-1.9,4.8-3.1c1-1.2,1.5-2.5,1.5-4
			c0-1.4-0.5-2.5-1.4-3.2c-0.9-0.8-2.3-1.1-4.2-1.1c-2,0-4.2,0.4-6.6,1.2c-2.4,0.8-4.7,2-6.8,3.6l-5.2-7.6c2.4-2.3,5.2-4,8.3-5
			c3.1-1,6.6-1.5,10.5-1.5c5.1,0,9,1,11.7,3.1c2.8,2.1,4.1,5,4.1,8.8c0,3.3-1.1,6.3-3.4,8.7c-2.3,2.5-5.3,4.2-8.9,5.1v3.9
			L570.9,844.1z M575.9,867.4c-2.9,0-5.5-0.2-7.9-0.5c-2.4-0.3-4.5-0.8-6.4-1.3l0.9-9.7c1.6,0.4,3.4,0.9,5.5,1.3
			c2,0.5,4.5,0.7,7.6,0.7c3.3,0,5.9-0.6,7.7-1.7c1.8-1.1,2.7-2.8,2.7-4.9c0-1.6-0.5-2.9-1.6-3.9c-1.1-1.1-2.7-1.9-4.7-2.4
			c-2.1-0.6-4.6-0.8-7.5-0.8h-1.2l-0.9-8.6l10.8,4c4.6,0.1,8.4,1.2,11.3,3.4c2.9,2.2,4.3,5.4,4.3,9.4c0,4.7-1.8,8.4-5.4,11.1
			C587.5,866.1,582.4,867.4,575.9,867.4z"/>
		<path class="st7" d="M649.7,844.7v-9.4h38.8v9.4H649.7z"/>
	</g>
	<g>
		<path class="st8" d="M309.1,776v-49.1h9.1V776H309.1z M317.4,761.9v-8.4h6.7c3,0,5.4-0.8,7-2.5c1.6-1.7,2.5-4,2.5-7
			c0-2.8-0.8-5-2.5-6.5c-1.6-1.5-4-2.3-7-2.3h-6.6v-8.4h6.6c6.2,0,10.9,1.4,14.3,4.3c3.4,2.9,5,7,5,12.3c0,5.9-1.7,10.4-5,13.6
			c-3.4,3.2-8.1,4.8-14.3,4.8H317.4z"/>
		<path class="st8" d="M350.9,735.1v-8.2h31.1v8.2H350.9z M350.9,776v-8.2h31.1v8.2H350.9z M361.8,776v-49.1h9.1V776H361.8z"/>
		<path class="st8" d="M416.2,776l-10.9-21.4l-17-27.7h11.4l11.3,22.7l16.6,26.4H416.2z M388.3,776l16.5-26.4l11.4-22.7h11.4
			l-17.1,27.7L399.7,776H388.3z"/>
		<path class="st8" d="M433.7,776v-49.1h9.1V776H433.7z M433.7,735.3v-8.4h33.7v8.4H433.7z M433.7,755.6v-8.4h27.5v8.4H433.7z
			 M433.7,776v-8.4h33.7v8.4H433.7z"/>
		<path class="st8" d="M475.2,776v-49.1h9.1V776H475.2z M475.2,776v-8.4h33.7v8.4H475.2z"/>
		<path class="st8" d="M558.2,776v-49.1h9.1V776H558.2z M566.5,761.9v-8.4h6.7c3,0,5.4-0.8,7-2.5s2.5-4,2.5-7c0-2.8-0.8-5-2.5-6.5
			c-1.6-1.5-4-2.3-7-2.3h-6.6v-8.4h6.6c6.2,0,10.9,1.4,14.3,4.3c3.4,2.9,5,7,5,12.3c0,5.9-1.7,10.4-5,13.6
			c-3.4,3.2-8.1,4.8-14.3,4.8H566.5z"/>
		<path class="st8" d="M600,735.1v-8.2h31.1v8.2H600z M600,776v-8.2h31.1v8.2H600z M611,776v-49.1h9.1V776H611z"/>
		<path class="st8" d="M640.9,776v-49.1h8.8V776H640.9z M659.6,776l-8.7-38.4h-3.8v-10.7h7.4l8.7,38.4h2.3V776H659.6z M664.5,776
			v-49.1h8.8V776H664.5z"/>
		<path class="st8" d="M680,735.3v-8.4h37.2v8.4H680z M694,776v-49.1h9.1V776H694z"/>
		<path class="st8" d="M348.5,840.8v-8.7h35.8v8.7H348.5z"/>
		<path class="st8" d="M433.4,861.1v-9.4c7.2-3.9,12.6-7.9,16.2-12.1c3.6-4.2,5.3-8.5,5.3-13c0-2.2-0.5-3.9-1.6-5
			c-1.1-1.1-2.8-1.7-5-1.7c-2,0-4,0.5-6.1,1.6c-2.1,1.1-4,2.5-5.5,4.3l-5.3-6.2c1.7-2.5,4.1-4.6,7.3-6.1c3.1-1.5,6.4-2.3,9.9-2.3
			c5.4,0,9.4,1.2,12.1,3.7c2.7,2.5,4,6.2,4,11.1c0,4.6-1.4,9.1-4.1,13.3c-2.7,4.3-6.9,8.3-12.4,12.3v9.4H433.4z M435.4,861.1V853
			h31.1v8.1H435.4z"/>
		<path class="st8" d="M491,861.7c-11.6,0-17.3-8.3-17.3-24.9c0-17.1,5.8-25.6,17.3-25.6c11.6,0,17.3,8.5,17.3,25.6
			C508.3,853.4,502.5,861.7,491,861.7z M491,853c5.3,0,7.9-5.4,7.9-16.2c0-11.3-2.6-16.9-7.9-16.9c-5.4,0-8,5.6-8,16.9
			C483,847.6,485.6,853,491,853z M490.9,843.2c-1.4,0-2.5-0.6-3.3-1.7c-0.8-1.2-1.3-2.7-1.3-4.6s0.4-3.4,1.3-4.6
			c0.8-1.2,2-1.7,3.3-1.7c1.4,0,2.5,0.6,3.4,1.7c0.9,1.2,1.3,2.7,1.3,4.6s-0.4,3.4-1.3,4.6C493.4,842.6,492.3,843.2,490.9,843.2z"/>
		<path class="st8" d="M516.4,861.1v-9.4c7.2-3.9,12.6-7.9,16.2-12.1c3.6-4.2,5.3-8.5,5.3-13c0-2.2-0.5-3.9-1.6-5
			c-1.1-1.1-2.8-1.7-5-1.7c-2,0-4,0.5-6.1,1.6c-2.1,1.1-4,2.5-5.5,4.3l-5.3-6.2c1.7-2.5,4.1-4.6,7.3-6.1c3.1-1.5,6.4-2.3,9.9-2.3
			c5.4,0,9.4,1.2,12.1,3.7c2.7,2.5,4,6.2,4,11.1c0,4.6-1.4,9.1-4.1,13.3c-2.7,4.3-6.9,8.3-12.4,12.3v9.4H516.4z M518.5,861.1V853
			h31.1v8.1H518.5z"/>
		<path class="st8" d="M566.4,840.3l-0.8-8c3.2-0.4,5.9-1,7.9-1.8c2-0.8,3.5-1.7,4.4-2.8s1.4-2.4,1.4-3.7c0-1.3-0.4-2.3-1.3-3
			c-0.9-0.7-2.2-1.1-3.9-1.1c-1.8,0-3.9,0.4-6.1,1.1s-4.3,1.8-6.3,3.3l-4.8-7.1c2.2-2.1,4.8-3.7,7.6-4.6c2.9-0.9,6.1-1.4,9.7-1.4
			c4.7,0,8.3,1,10.8,2.9c2.5,1.9,3.8,4.6,3.8,8.2c0,3.1-1.1,5.8-3.2,8c-2.1,2.3-4.9,3.8-8.3,4.7v3.6L566.4,840.3z M571.1,861.7
			c-2.7,0-5.1-0.2-7.3-0.4c-2.2-0.3-4.2-0.7-5.9-1.2l0.9-9c1.5,0.4,3.2,0.8,5,1.2s4.2,0.7,7,0.7c3,0,5.4-0.5,7.1-1.6
			c1.7-1.1,2.5-2.6,2.5-4.5c0-1.4-0.5-2.6-1.5-3.6c-1-1-2.5-1.7-4.4-2.3c-1.9-0.5-4.2-0.8-7-0.8h-1.1l-0.8-8l10,3.7
			c4.3,0,7.7,1.1,10.4,3.2c2.7,2.1,4,5,4,8.7c0,4.4-1.6,7.8-4.9,10.2C581.7,860.5,577.1,861.7,571.1,861.7z"/>
		<path class="st8" d="M639.2,840.8v-8.7H675v8.7H639.2z"/>
	</g>
</g>
</svg>
